<svg xmlns="http://www.w3.org/2000/svg" viewBox="0 0 32 32">
  <!-- Background -->
  <rect width="32" height="32" rx="8" fill="#7fd8f0"/>
  
  <!-- Hamster hood -->
  <ellipse cx="16" cy="16" rx="11" ry="10" fill="#2c3e50"/>
  
  <!-- Hood ears -->
  <circle cx="8" cy="10" r="4" fill="#2c3e50"/>
  <circle cx="24" cy="10" r="4" fill="#2c3e50"/>
  
  <!-- Inner ear details -->
  <circle cx="8" cy="10" r="2.5" fill="#34495e"/>
  <circle cx="24" cy="10" r="2.5" fill="#34495e"/>
  <ellipse cx="8" cy="10" rx="1.5" ry="2" fill="#d4c5e8"/>
  <ellipse cx="24" cy="10" rx="1.5" ry="2" fill="#d4c5e8"/>
  
  <!-- Hamster face -->
  <ellipse cx="16" cy="18" rx="8" ry="7" fill="#e8e0f0"/>
  
  <!-- Cheeks -->
  <ellipse cx="9" cy="19" rx="3" ry="3.5" fill="#f0e8f5"/>
  <ellipse cx="23" cy="19" rx="3" ry="3.5" fill="#f0e8f5"/>
  
  <!-- Eyes -->
  <ellipse cx="12" cy="17" rx="2.5" ry="3" fill="#1a1a1a"/>
  <ellipse cx="20" cy="17" rx="2.5" ry="3" fill="#1a1a1a"/>
  
  <!-- Eye highlights -->
  <ellipse cx="12.5" cy="16" rx="1" ry="1.2" fill="#ffffff"/>
  <ellipse cx="20.5" cy="16" rx="1" ry="1.2" fill="#ffffff"/>
  
  <!-- Nose -->
  <path d="M 16 20 L 14.5 21.5 L 16 22 L 17.5 21.5 Z" fill="#d4a5b3"/>
  
  <!-- Mouth -->
  <path d="M 16 22 Q 14 23 12 22" fill="none" stroke="#d4a5b3" stroke-width="0.5" stroke-linecap="round"/>
  <path d="M 16 22 Q 18 23 20 22" fill="none" stroke="#d4a5b3" stroke-width="0.5" stroke-linecap="round"/>
  
  <!-- Whiskers -->
  <line x1="5" y1="18" x2="8" y2="17" stroke="#c8b8e0" stroke-width="0.5" opacity="0.6"/>
  <line x1="5" y1="20" x2="8" y2="19" stroke="#c8b8e0" stroke-width="0.5" opacity="0.6"/>
  <line x1="24" y1="17" x2="27" y2="18" stroke="#c8b8e0" stroke-width="0.5" opacity="0.6"/>
  <line x1="24" y1="19" x2="27" y2="20" stroke="#c8b8e0" stroke-width="0.5" opacity="0.6"/>
</svg>